<svg width="979" height="90" viewBox="0 0 979 90" fill="none" xmlns="http://www.w3.org/2000/svg">
<mask id="mask0_19_5" style="mask-type:luminance" maskUnits="userSpaceOnUse" x="0" y="0" width="979" height="90">
<path d="M978.667 0H0V89.3333H978.667V0Z" fill="white"/>
</mask>
<g mask="url(#mask0_19_5)">
<mask id="mask1_19_5" style="mask-type:luminance" maskUnits="userSpaceOnUse" x="0" y="1" width="474" height="88">
<path d="M0.104187 1.22919H473.333V88.2656H0.104187V1.22919Z" fill="white"/>
</mask>
<g mask="url(#mask1_19_5)">
<mask id="mask2_19_5" style="mask-type:luminance" maskUnits="userSpaceOnUse" x="0" y="0" width="474" height="90">
<path d="M473.333 0H0V89.3333H473.333V0Z" fill="white"/>
</mask>
<g mask="url(#mask2_19_5)">
<path d="M71.8997 74.7762H56.1914C55.7175 74.7762 55.4831 74.6304 55.4831 74.3387V74.1512C55.4831 73.7502 55.6914 73.5158 56.1081 73.4429C58.3008 73.2762 59.5977 72.7502 60.0039 71.8595C60.4206 70.9741 60.6289 69.9377 60.6289 68.7554V45.422C60.6289 40.87 59.9466 37.6304 58.5872 35.7137C57.2383 33.7866 55.4414 32.8179 53.1914 32.8179C50.6497 32.8179 48.3997 33.4585 46.4414 34.7345C44.4935 36.0002 42.8685 37.7554 41.5664 40.0054C41.5664 40.896 41.5925 41.797 41.6497 42.7137C41.7018 43.6304 41.7331 44.6252 41.7331 45.6929V67.9429C41.7331 69.3075 41.9518 70.495 42.3997 71.5054C42.8425 72.5054 44.2175 73.1512 46.5247 73.4429C46.6497 73.5158 46.78 73.5887 46.9206 73.672C47.0716 73.7554 47.1497 73.9168 47.1497 74.1512C47.1497 74.5679 46.9102 74.7762 46.4414 74.7762H31.0039C30.53 74.7762 30.2956 74.5679 30.2956 74.1512C30.2956 73.6825 30.5039 73.4429 30.9206 73.4429C32.5143 73.3335 33.655 73.0158 34.3372 72.4845C35.0143 71.9429 35.4258 71.2762 35.5664 70.4845C35.7175 69.6825 35.7956 68.8335 35.7956 67.9429V45.422C35.7956 40.87 35.0977 37.6304 33.7122 35.7137C32.3216 33.7866 30.5039 32.8179 28.2539 32.8179C25.8893 32.8179 23.7331 33.4325 21.7747 34.6512C19.8268 35.8595 18.2018 37.5002 16.8997 39.5679V67.9429C16.8997 69.3075 17.1341 70.495 17.6081 71.5054C18.0768 72.5054 19.3216 73.1512 21.3372 73.4429C21.9883 73.5679 22.3164 73.8075 22.3164 74.1512C22.3164 74.5679 22.0768 74.7762 21.6081 74.7762H5.62891C5.15495 74.7762 4.92057 74.6304 4.92057 74.3387V74.1512C4.92057 73.7502 5.12891 73.5158 5.54557 73.4429C8.02995 73.2762 9.52474 72.6616 10.0247 71.5887C10.5247 70.521 10.7747 69.3075 10.7747 67.9429V35.8387C10.7747 34.6043 10.5508 33.87 10.1081 33.6304C9.67578 33.396 8.48307 33.2762 6.52474 33.2762H5.73307C5.07682 33.2762 4.75391 33.0054 4.75391 32.4637C4.75391 32.047 4.98828 31.7866 5.46224 31.672C7.00391 31.3804 8.74349 30.9845 10.6914 30.4845C12.6497 29.9741 14.4831 29.5054 16.1914 29.0887H16.2747C16.6914 29.0887 16.8997 29.3908 16.8997 29.9845V36.0262C18.2591 33.7762 20.0039 32.047 22.1289 30.8387C24.2643 29.62 26.5143 29.0054 28.8789 29.0054C32.3633 29.0054 35.0247 29.6877 36.8581 31.047C38.6914 32.4116 40.0247 34.5679 40.8581 37.5262C42.3997 34.8075 44.3216 32.7085 46.6289 31.2345C48.931 29.7502 51.3581 29.0054 53.8997 29.0054C58.6914 29.0054 62.03 30.3804 63.9206 33.1304C65.806 35.8804 66.7539 40.0679 66.7539 45.6929V67.9429C66.7539 69.3075 67.0664 70.495 67.6914 71.5054C68.3164 72.5054 69.7435 73.1512 71.9831 73.4429C72.1081 73.5158 72.2383 73.5887 72.3789 73.672C72.53 73.7554 72.6081 73.9168 72.6081 74.1512C72.6081 74.5679 72.3685 74.7762 71.8997 74.7762Z" fill="#3D3B3A"/>
<path d="M126.265 64.3179V48.1721C124.733 48.7554 122.65 49.3908 120.015 50.0679C117.39 50.7502 114.77 51.3283 112.16 51.7971C108.311 52.4533 105.499 53.7294 103.723 55.6304C101.957 57.521 101.077 59.9429 101.077 62.9012C101.077 65.4429 101.931 67.4741 103.64 68.9846C105.358 70.4846 108.082 71.2346 111.806 71.2346C113.874 71.2346 115.916 70.896 117.931 70.2137C119.942 69.5366 121.712 68.6669 123.244 67.6096C124.785 66.5419 125.791 65.4429 126.265 64.3179ZM132.39 45.5887V65.6512C132.39 68.0158 132.666 69.7866 133.223 70.9637C133.791 72.146 134.811 72.7346 136.285 72.7346C137.41 72.7346 138.416 72.4116 139.306 71.7554C139.598 71.5887 139.806 71.5054 139.931 71.5054C139.983 71.5054 140.129 71.6252 140.369 71.8596C140.436 71.9169 140.473 72.0054 140.473 72.1304C140.473 72.37 140.369 72.5887 140.16 72.7971C139.952 72.995 139.754 73.1512 139.577 73.2762C138.978 73.8596 138.129 74.3752 137.035 74.8179C135.952 75.2606 134.874 75.4846 133.806 75.4846C131.265 75.4846 129.416 74.8648 128.265 73.6304C127.108 72.3804 126.535 70.5471 126.535 68.1304C125.296 69.7294 123.712 71.0783 121.785 72.1721C119.869 73.2554 117.827 74.0835 115.66 74.6512C113.504 75.2033 111.452 75.4846 109.494 75.4846C104.587 75.4846 100.921 74.4116 98.4937 72.2554C96.077 70.0887 94.8687 67.12 94.8687 63.3387C94.8687 58.6721 96.3583 55.2658 99.3479 53.1096C102.332 50.9429 106.483 49.5054 111.806 48.7971C113.108 48.62 114.645 48.3387 116.41 47.9637C118.186 47.5783 119.952 47.1616 121.702 46.7137C123.452 46.271 124.879 45.8387 125.994 45.4221C125.994 40.3387 124.895 36.8075 122.702 34.8179C120.52 32.8335 117.66 31.8387 114.119 31.8387C109.853 31.8387 106.921 32.4012 105.327 33.5262C103.728 34.6512 102.931 36.1304 102.931 37.9637C102.931 38.4377 103.181 38.9846 103.681 39.6096C104.192 40.2346 104.452 40.9325 104.452 41.6929C104.452 44.3596 103.119 45.6929 100.452 45.6929C99.2698 45.6929 98.3531 45.2346 97.702 44.3179C97.0458 43.4012 96.7229 42.2919 96.7229 40.9846C96.7229 37.6825 98.3062 34.8491 101.473 32.4846C104.64 30.1096 109.145 28.9221 114.994 28.9221C120.978 28.9221 125.374 30.3127 128.181 33.0887C130.983 35.87 132.39 40.0366 132.39 45.5887Z" fill="#3D3B3A"/>
<path d="M226.323 74.7762H210.614C210.14 74.7762 209.906 74.6304 209.906 74.3387V74.1512C209.906 73.7502 210.114 73.5158 210.531 73.4429C212.724 73.2762 214.021 72.7502 214.427 71.8595C214.843 70.9741 215.052 69.9377 215.052 68.7554V45.422C215.052 40.87 214.369 37.6304 213.01 35.7137C211.661 33.7866 209.864 32.8179 207.614 32.8179C205.073 32.8179 202.823 33.4585 200.864 34.7345C198.916 36.0002 197.291 37.7554 195.989 40.0054C195.989 40.896 196.015 41.797 196.073 42.7137C196.125 43.6304 196.156 44.6252 196.156 45.6929V67.9429C196.156 69.3075 196.375 70.495 196.823 71.5054C197.265 72.5054 198.64 73.1512 200.948 73.4429C201.073 73.5158 201.203 73.5887 201.343 73.672C201.494 73.7554 201.573 73.9168 201.573 74.1512C201.573 74.5679 201.333 74.7762 200.864 74.7762H185.427C184.953 74.7762 184.718 74.5679 184.718 74.1512C184.718 73.6825 184.927 73.4429 185.343 73.4429C186.937 73.3335 188.078 73.0158 188.76 72.4845C189.437 71.9429 189.849 71.2762 189.989 70.4845C190.14 69.6825 190.218 68.8335 190.218 67.9429V45.422C190.218 40.87 189.521 37.6304 188.135 35.7137C186.744 33.7866 184.927 32.8179 182.677 32.8179C180.312 32.8179 178.156 33.4325 176.198 34.6512C174.25 35.8595 172.625 37.5002 171.323 39.5679V67.9429C171.323 69.3075 171.557 70.495 172.031 71.5054C172.5 72.5054 173.744 73.1512 175.76 73.4429C176.411 73.5679 176.739 73.8075 176.739 74.1512C176.739 74.5679 176.5 74.7762 176.031 74.7762H160.052C159.578 74.7762 159.343 74.6304 159.343 74.3387V74.1512C159.343 73.7502 159.552 73.5158 159.968 73.4429C162.453 73.2762 163.948 72.6616 164.448 71.5887C164.948 70.521 165.198 69.3075 165.198 67.9429V35.8387C165.198 34.6043 164.974 33.87 164.531 33.6304C164.099 33.396 162.906 33.2762 160.948 33.2762H160.156C159.5 33.2762 159.177 33.0054 159.177 32.4637C159.177 32.047 159.411 31.7866 159.885 31.672C161.427 31.3804 163.166 30.9845 165.114 30.4845C167.073 29.9741 168.906 29.5054 170.614 29.0887H170.698C171.114 29.0887 171.323 29.3908 171.323 29.9845V36.0262C172.682 33.7762 174.427 32.047 176.552 30.8387C178.687 29.62 180.937 29.0054 183.302 29.0054C186.786 29.0054 189.448 29.6877 191.281 31.047C193.114 32.4116 194.448 34.5679 195.281 37.5262C196.823 34.8075 198.744 32.7085 201.052 31.2345C203.354 29.7502 205.781 29.0054 208.323 29.0054C213.114 29.0054 216.453 30.3804 218.343 33.1304C220.229 35.8804 221.177 40.0679 221.177 45.6929V67.9429C221.177 69.3075 221.489 70.495 222.114 71.5054C222.739 72.5054 224.166 73.1512 226.406 73.4429C226.531 73.5158 226.661 73.5887 226.802 73.672C226.953 73.7554 227.031 73.9168 227.031 74.1512C227.031 74.5679 226.791 74.7762 226.323 74.7762Z" fill="#3D3B3A"/>
<path d="M280.687 64.3179V48.1721C279.156 48.7554 277.073 49.3908 274.437 50.0679C271.812 50.7502 269.193 51.3283 266.583 51.7971C262.734 52.4533 259.922 53.7294 258.146 55.6304C256.38 57.521 255.5 59.9429 255.5 62.9012C255.5 65.4429 256.354 67.4741 258.062 68.9846C259.781 70.4846 262.505 71.2346 266.229 71.2346C268.297 71.2346 270.338 70.896 272.354 70.2137C274.364 69.5366 276.135 68.6669 277.667 67.6096C279.208 66.5419 280.213 65.4429 280.687 64.3179ZM286.812 45.5887V65.6512C286.812 68.0158 287.088 69.7866 287.646 70.9637C288.213 72.146 289.234 72.7346 290.708 72.7346C291.833 72.7346 292.838 72.4116 293.729 71.7554C294.021 71.5887 294.229 71.5054 294.354 71.5054C294.406 71.5054 294.552 71.6252 294.792 71.8596C294.859 71.9169 294.896 72.0054 294.896 72.1304C294.896 72.37 294.792 72.5887 294.583 72.7971C294.375 72.995 294.177 73.1512 294 73.2762C293.401 73.8596 292.552 74.3752 291.458 74.8179C290.375 75.2606 289.297 75.4846 288.229 75.4846C285.687 75.4846 283.838 74.8648 282.687 73.6304C281.531 72.3804 280.958 70.5471 280.958 68.1304C279.719 69.7294 278.135 71.0783 276.208 72.1721C274.292 73.2554 272.25 74.0835 270.083 74.6512C267.927 75.2033 265.875 75.4846 263.917 75.4846C259.01 75.4846 255.344 74.4116 252.917 72.2554C250.5 70.0887 249.292 67.12 249.292 63.3387C249.292 58.6721 250.781 55.2658 253.771 53.1096C256.755 50.9429 260.906 49.5054 266.229 48.7971C267.531 48.62 269.068 48.3387 270.833 47.9637C272.609 47.5783 274.375 47.1616 276.125 46.7137C277.875 46.271 279.302 45.8387 280.417 45.4221C280.417 40.3387 279.318 36.8075 277.125 34.8179C274.943 32.8335 272.083 31.8387 268.542 31.8387C264.276 31.8387 261.344 32.4012 259.75 33.5262C258.151 34.6512 257.354 36.1304 257.354 37.9637C257.354 38.4377 257.604 38.9846 258.104 39.6096C258.614 40.2346 258.875 40.9325 258.875 41.6929C258.875 44.3596 257.542 45.6929 254.875 45.6929C253.693 45.6929 252.776 45.2346 252.125 44.3179C251.469 43.4012 251.146 42.2919 251.146 40.9846C251.146 37.6825 252.729 34.8491 255.896 32.4846C259.062 30.1096 263.568 28.9221 269.417 28.9221C275.401 28.9221 279.797 30.3127 282.604 33.0887C285.406 35.87 286.812 40.0366 286.812 45.5887Z" fill="#3D3B3A"/>
<path d="M356.079 74.6929H338.704C338.339 74.6929 338.162 74.5158 338.162 74.1512C338.162 73.9169 338.313 73.745 338.62 73.6304C340.214 73.3387 341.35 72.9846 342.016 72.5679C342.693 72.1512 343.037 71.7085 343.037 71.2346C343.037 70.8752 342.891 70.495 342.6 70.0887L332.141 55.0887L322.204 69.0054C321.912 69.4221 321.766 69.8127 321.766 70.1721C321.766 71.5887 323.36 72.745 326.558 73.6304C326.85 73.745 326.995 73.9169 326.995 74.1512V74.4221C326.995 74.6044 326.85 74.6929 326.558 74.6929H311.475C311.11 74.6929 310.933 74.4585 310.933 73.9846C310.933 73.6929 311.079 73.4846 311.37 73.3596C313.146 72.8908 314.495 72.3752 315.412 71.8179C316.329 71.2502 317.021 70.6408 317.495 69.9846L330.454 52.4221L316.87 33.7137C316.105 32.7033 315.422 32.021 314.829 31.6721C314.245 31.3127 313.417 31.1044 312.35 31.0471C312.001 31.0471 311.829 30.8387 311.829 30.4221C311.829 29.9533 312.063 29.7137 312.537 29.7137H327.704C327.995 29.7137 328.141 29.896 328.141 30.2554C328.141 30.6721 327.964 30.9117 327.62 30.9637C326.313 31.2033 325.412 31.4377 324.912 31.6721C324.412 31.9117 324.162 32.2033 324.162 32.5471C324.162 32.7867 324.308 33.146 324.6 33.6304L333.995 47.3804L343.308 34.5054C343.542 34.2137 343.662 33.8908 343.662 33.5262C343.662 32.8752 343.23 32.3127 342.37 31.8387C341.521 31.37 340.417 31.0783 339.058 30.9637C338.693 30.9637 338.516 30.7294 338.516 30.2554C338.516 29.896 338.667 29.7137 338.975 29.7137H352.975C353.443 29.7137 353.683 29.9533 353.683 30.4221C353.683 30.7294 353.537 30.9117 353.245 30.9637C350.756 31.3127 348.922 32.2867 347.745 33.8804L336.037 49.7762L350.225 70.3387C351.417 72.0627 353.313 73.0679 355.912 73.3596C356.256 73.3596 356.433 73.5679 356.433 73.9846C356.433 74.4585 356.313 74.6929 356.079 74.6929Z" fill="#3D3B3A"/>
<path d="M391.922 74.6929H375.422C374.948 74.6929 374.714 74.4846 374.714 74.0679C374.714 73.5991 374.922 73.3596 375.339 73.3596C377.807 73.0679 379.323 72.4221 379.88 71.4221C380.448 70.4116 380.734 69.2241 380.734 67.8596V35.8387C380.734 34.6044 380.552 33.87 380.193 33.6304C379.844 33.396 378.635 33.2762 376.568 33.2762H375.693C375.036 33.2762 374.714 33.0366 374.714 32.5471C374.714 32.2033 374.948 31.9637 375.422 31.8387C377.49 31.495 379.469 31.0575 381.359 30.5262C383.245 29.9846 384.87 29.4533 386.234 28.9221H386.422C386.766 28.9221 386.943 29.2137 386.943 29.7971V67.8596C386.943 68.7502 387.016 69.5991 387.172 70.4012C387.323 71.1929 387.755 71.8596 388.464 72.4012C389.172 72.9325 390.349 73.2502 392.005 73.3596C392.422 73.3596 392.63 73.5991 392.63 74.0679C392.63 74.4846 392.391 74.6929 391.922 74.6929ZM383.234 18.0054C381.927 18.0054 380.781 17.4794 379.797 16.4221C378.823 15.3544 378.339 14.1669 378.339 12.8596C378.339 11.5679 378.823 10.4012 379.797 9.35956C380.781 8.31789 381.927 7.79706 383.234 7.79706C384.594 7.79706 385.745 8.31789 386.693 9.35956C387.635 10.4012 388.109 11.5679 388.109 12.8596C388.109 14.1669 387.635 15.3544 386.693 16.4221C385.745 17.4794 384.594 18.0054 383.234 18.0054Z" fill="#3D3B3A"/>
<path d="M416.495 71.1512C416.255 69.5575 416 67.7658 415.724 65.7762C415.458 63.7919 415.151 61.5887 414.807 59.1721C414.807 59.0471 414.979 58.9325 415.328 58.8179C415.453 58.8179 415.541 58.8075 415.599 58.7762C415.651 58.7502 415.713 58.7346 415.786 58.7346C415.953 58.7346 416.067 58.8179 416.14 58.9846C417.974 63.7762 420.161 67.2866 422.703 69.5054C425.245 71.7294 428.286 72.8387 431.828 72.8387C435.729 72.8387 438.776 72.1721 440.974 70.8387C443.166 69.5054 444.265 67.745 444.265 65.5471C444.265 63.3127 443.807 61.4377 442.89 59.9221C441.974 58.4116 440.208 57.0054 437.599 55.7137C435 54.4116 431.161 53.0471 426.078 51.6304C422.521 50.6304 419.838 49.1408 418.036 47.1512C416.229 45.1669 415.328 42.8127 415.328 40.0887C415.328 37.0783 416.661 34.4637 419.328 32.2554C421.995 30.0366 425.661 28.9221 430.328 28.9221C432.521 28.9221 434.474 29.0002 436.182 29.1512C437.901 29.2919 439.828 29.6252 441.953 30.1512C442.245 30.2241 442.536 30.271 442.828 30.2971C443.13 30.3283 443.401 30.3387 443.64 30.3387C444.817 30.3387 445.672 30.1616 446.203 29.7971C446.437 29.6877 446.646 29.6304 446.828 29.6304C447.062 29.6304 447.208 29.7502 447.265 29.9846C447.442 31.6929 447.651 33.5419 447.89 35.5262C448.125 37.5158 448.479 39.5419 448.953 41.6096C448.953 41.7241 448.849 41.8387 448.64 41.9637C448.432 42.0783 448.245 42.1304 448.078 42.1304C447.713 42.1304 447.479 41.9846 447.37 41.6929C445.88 38.6252 444.276 36.37 442.557 34.9221C440.849 33.4637 439.062 32.5002 437.203 32.0262C435.338 31.5575 433.432 31.3179 431.474 31.3179C428.109 31.3179 425.583 32.0158 423.89 33.4012C422.208 34.7919 421.37 36.7033 421.37 39.1304C421.37 40.6044 421.776 41.8491 422.599 42.8596C423.432 43.8596 424.854 44.7762 426.87 45.6096C428.88 46.4325 431.604 47.3387 435.036 48.3387C439.755 49.7033 443.609 51.521 446.599 53.7971C449.583 56.0783 451.078 59.1408 451.078 62.9846C451.078 65.3491 450.484 67.4794 449.307 69.3804C448.125 71.271 446.161 72.7658 443.411 73.8596C440.661 74.9429 436.916 75.4846 432.182 75.4846C429.526 75.4846 426.88 75.1304 424.245 74.4221C421.62 73.7137 419.328 72.8283 417.37 71.7554C416.838 71.521 416.547 71.3179 416.495 71.1512Z" fill="#3D3B3A"/>
</g>
</g>
<mask id="mask3_19_5" style="mask-type:luminance" maskUnits="userSpaceOnUse" x="498" y="10" width="481" height="78">
<path d="M978.667 10.6667H498.667V88H978.667V10.6667Z" fill="white"/>
</mask>
<g mask="url(#mask3_19_5)">
<path d="M523.24 25.4724V71.5766C523.24 72.5089 523.813 73.2224 524.969 73.7224C526.136 74.2224 527.308 74.4724 528.49 74.4724C530.032 74.4724 531.579 74.2172 533.136 73.7016C534.688 73.1755 536.12 72.1495 537.428 70.6182C538.73 69.0766 539.782 66.8474 540.573 63.9307C541.365 61.0141 541.761 57.1911 541.761 52.4516C541.761 46.9099 541.126 42.1078 539.865 38.0349C538.615 33.9516 536.948 30.7849 534.865 28.5349C532.792 26.2849 530.521 25.1599 528.053 25.1599C526.813 25.1599 525.704 25.2172 524.719 25.3266C523.73 25.4255 523.24 25.4724 523.24 25.4724ZM529.386 77.5766H503.594C502.995 77.5766 502.698 77.3057 502.698 76.7641C502.698 76.4203 502.782 76.1964 502.948 76.0974C503.126 76.0036 503.313 75.9255 503.511 75.8682C505.594 75.6182 507.001 75.337 507.74 75.0141C508.474 74.6964 508.844 74.0453 508.844 73.0557V26.8057C508.844 25.8214 508.474 25.1547 507.74 24.8057C507.001 24.462 505.594 24.1911 503.511 23.9932C503.313 23.9411 503.126 23.863 502.948 23.7641C502.782 23.6703 502.698 23.4464 502.698 23.0974C502.698 22.5557 502.995 22.2849 503.594 22.2849C506.995 22.2849 510.063 22.2641 512.803 22.2224C515.553 22.1703 518.287 22.1182 521.011 22.0766C523.73 22.0245 526.771 21.9932 530.136 21.9932C538.678 21.9932 545.313 24.4255 550.053 29.2849C554.803 34.1495 557.178 41.0766 557.178 50.0766C557.178 59.1755 554.751 66.0349 549.907 70.6599C545.073 75.2745 538.23 77.5766 529.386 77.5766Z" fill="#3D3B3A"/>
<path d="M633.052 77.9516H632.99C627.792 77.8943 623.552 77.8162 620.261 77.7224C616.98 77.6235 614.25 77.5766 612.073 77.5766H591.032C590.433 77.5766 590.136 77.3057 590.136 76.7641C590.136 76.4203 590.219 76.1964 590.386 76.0974C590.563 76.0037 590.75 75.9255 590.948 75.8682C593.032 75.6182 594.438 75.337 595.177 75.0141C595.912 74.6964 596.282 74.0453 596.282 73.0557V26.8057C596.282 25.8214 595.912 25.1547 595.177 24.8057C594.438 24.462 593.032 24.1912 590.948 23.9932C590.75 23.9412 590.563 23.863 590.386 23.7641C590.219 23.6703 590.136 23.4464 590.136 23.0974C590.136 22.5557 590.433 22.2849 591.032 22.2849H618.011C620.188 22.2849 622.313 22.2224 624.386 22.0974C626.454 21.9724 628.625 21.7849 630.907 21.5349H631.136C631.427 21.5349 631.704 21.6287 631.969 21.8057C632.245 21.9724 632.412 22.3266 632.469 22.8682C632.563 23.8578 632.724 25.2328 632.948 26.9932C633.167 28.7432 633.407 30.5245 633.657 32.3266C633.907 34.1339 634.125 35.6547 634.323 36.8891V37.3266C634.323 37.6182 634.198 37.7953 633.948 37.8474C633.657 37.9464 633.454 37.9932 633.344 37.9932C633.105 37.9932 632.933 37.9255 632.823 37.7849C632.724 37.6339 632.625 37.4307 632.532 37.1807C631.157 33.3214 629.058 30.3266 626.24 28.2016C623.417 26.0766 620.407 25.0141 617.198 25.0141H610.677V47.5557C611.511 47.5557 612.417 47.5453 613.407 47.5141C614.407 47.488 615.073 47.4516 615.407 47.4099C616.058 47.3162 616.677 47.0922 617.261 46.7432C617.855 46.3995 618.407 46.0037 618.907 45.5557C619.391 45.0141 619.99 44.2016 620.698 43.1182C621.417 42.0245 622.084 40.9203 622.698 39.8057C623.323 38.6964 623.709 37.8422 623.865 37.2432C624.016 36.8005 624.24 36.5766 624.532 36.5766C624.724 36.5766 624.896 36.6078 625.052 36.6599C625.594 36.8162 625.865 37.0662 625.865 37.4099C625.865 37.4516 625.849 37.5037 625.823 37.5557C625.808 37.5974 625.802 37.6703 625.802 37.7641C625.594 38.712 625.396 39.9099 625.219 41.3682C625.052 42.8266 624.907 44.2537 624.782 45.6391C624.667 47.0141 624.615 48.0974 624.615 48.8891C624.615 49.7797 624.667 50.9307 624.782 52.3474C624.907 53.7537 625.052 55.1599 625.219 56.5766C625.396 57.9828 625.594 59.1495 625.802 60.0766C625.802 60.1339 625.808 60.2016 625.823 60.2849C625.849 60.3578 625.865 60.4099 625.865 60.4516C625.865 60.8005 625.594 61.0505 625.052 61.2016C624.954 61.2432 624.808 61.2641 624.615 61.2641C624.266 61.2641 624.016 61.0245 623.865 60.5349C623.709 59.9412 623.323 59.087 622.698 57.9724C622.084 56.863 621.417 55.7641 620.698 54.6807C619.99 53.587 619.365 52.7953 618.823 52.3057C618.375 51.9047 617.855 51.5245 617.261 51.1599C616.677 50.7849 616.058 50.5714 615.407 50.5141C615.073 50.4724 614.407 50.4412 613.407 50.4099C612.417 50.3839 611.511 50.3682 610.677 50.3682V71.5766C610.677 72.5089 610.969 73.1391 611.552 73.4724C612.146 73.7953 612.667 74.0037 613.115 74.0974C614.198 74.3474 615.511 74.4724 617.052 74.4724C618.188 74.4724 619.302 74.4099 620.386 74.2849C621.469 74.1599 622.329 73.9724 622.969 73.7224C625.302 72.837 627.474 71.4412 629.49 69.5349C631.516 67.6339 633.37 64.9516 635.052 61.4932C635.204 61.2432 635.344 61.0505 635.469 60.9099C635.594 60.7589 635.75 60.6807 635.948 60.6807C636.042 60.6807 636.24 60.7328 636.532 60.8266C636.933 60.9255 637.136 61.1182 637.136 61.4099C637.136 61.6182 637.105 61.7953 637.052 61.9307C636.704 63.2224 636.334 64.837 635.948 66.7641C635.558 68.6807 635.198 70.5453 634.865 72.3474C634.542 74.1547 634.313 75.5505 634.177 76.5349C634.12 77.1339 634 77.5141 633.823 77.6807C633.657 77.8578 633.396 77.9516 633.052 77.9516Z" fill="#3D3B3A"/>
<path d="M710.649 37.2432V37.7016C710.649 37.9932 710.492 38.1703 710.19 38.2224C709.899 38.3214 709.701 38.3682 709.607 38.3682C709.258 38.3682 709.008 38.0974 708.857 37.5557C707.925 34.988 706.508 32.7328 704.607 30.7849C702.701 28.8266 700.612 27.2797 698.336 26.1391C696.055 25.0036 693.904 24.4307 691.878 24.4307C687.878 24.4307 684.945 25.087 683.086 26.3891C681.237 27.6964 680.315 29.4411 680.315 31.6182C680.315 33.6495 681.425 35.4828 683.649 37.1182C685.883 38.7432 689.638 40.3474 694.919 41.9307C701.003 43.712 705.774 46.2536 709.232 49.5557C712.69 52.863 714.419 57.113 714.419 62.3057C714.419 67.5974 712.451 71.7172 708.524 74.6599C704.591 77.587 698.701 79.0557 690.857 79.0557C688.966 79.0557 686.971 78.8995 684.878 78.5974C682.779 78.3057 680.794 77.9151 678.919 77.4307C677.044 76.9307 675.461 76.4099 674.169 75.8682C673.68 75.6182 673.336 75.3995 673.128 75.2016C672.93 75.0089 672.815 74.7641 672.774 74.4724C672.716 73.4724 672.576 72.0974 672.357 70.3474C672.133 68.5974 671.867 66.7745 671.565 64.8682C671.274 62.9672 670.951 61.3682 670.607 60.0766C670.607 59.9828 670.591 59.8995 670.565 59.8266C670.55 59.7589 670.544 59.6964 670.544 59.6391C670.544 59.3474 670.737 59.1286 671.128 58.9724C671.43 58.8786 671.633 58.8266 671.732 58.8266C672.117 58.8266 672.388 59.0974 672.544 59.6391C674.07 63.0974 675.992 65.988 678.315 68.3057C680.649 70.6286 682.992 72.3578 685.357 73.4932C687.732 74.6339 689.758 75.2016 691.44 75.2016C694.8 75.2016 697.466 74.5349 699.44 73.2016C701.425 71.8682 702.419 70.0661 702.419 67.7849C702.419 65.7589 701.362 63.712 699.253 61.6391C697.154 59.5714 694.055 57.8161 689.961 56.3682C685.612 54.8422 682.013 53.1911 679.169 51.4099C676.336 49.6339 674.211 47.5714 672.794 45.2224C671.388 42.8786 670.69 40.0505 670.69 36.7432C670.69 31.9932 672.487 28.1547 676.086 25.2224C679.695 22.2797 684.909 20.8057 691.732 20.8057C693.466 20.8057 695.404 20.9828 697.544 21.3266C699.695 21.6599 701.466 22.0036 702.857 22.3474C703.008 22.4047 703.154 22.4307 703.294 22.4307C703.445 22.4307 703.596 22.4307 703.753 22.4307H704.274C705.357 22.4307 706.263 22.3578 707.003 22.2016C707.253 22.1599 707.445 22.1286 707.586 22.0974C707.737 22.0714 707.867 22.0557 707.982 22.0557C708.466 22.0557 708.737 22.4516 708.794 23.2432C708.888 24.2328 709.034 25.6078 709.232 27.3682C709.425 29.1182 709.654 30.8995 709.919 32.7016C710.195 34.4932 710.44 36.0089 710.649 37.2432Z" fill="#3D3B3A"/>
<path d="M773.708 77.5766H748.041C747.458 77.5766 747.166 77.3057 747.166 76.7641C747.166 76.4203 747.249 76.1964 747.416 76.0974C747.593 76.0037 747.781 75.9255 747.978 75.8682C750.353 75.6182 751.874 75.337 752.541 75.0141C753.208 74.6964 753.541 74.0453 753.541 73.0557V26.8057C753.541 25.8214 753.208 25.1547 752.541 24.8057C751.874 24.462 750.353 24.1912 747.978 23.9932C747.781 23.9412 747.593 23.863 747.416 23.7641C747.249 23.6703 747.166 23.4464 747.166 23.0974C747.166 22.5557 747.458 22.2849 748.041 22.2849H773.708C774.291 22.2849 774.583 22.5557 774.583 23.0974C774.583 23.4464 774.504 23.6703 774.353 23.7641C774.213 23.863 774.02 23.9412 773.77 23.9932C771.395 24.1912 769.874 24.462 769.208 24.8057C768.541 25.1547 768.208 25.8214 768.208 26.8057V73.0557C768.208 74.0453 768.541 74.6964 769.208 75.0141C769.874 75.337 771.395 75.6182 773.77 75.8682C774.02 75.9255 774.213 76.0037 774.353 76.0974C774.504 76.1964 774.583 76.4203 774.583 76.7641C774.583 77.3057 774.291 77.5766 773.708 77.5766Z" fill="#3D3B3A"/>
<path d="M845.739 70.1599V56.0141C845.739 55.1703 845.405 54.5349 844.739 54.1182C844.072 53.7016 842.895 53.3891 841.218 53.1807C840.619 53.1391 840.322 52.8214 840.322 52.2224C840.322 51.8786 840.405 51.6703 840.572 51.5974C840.749 51.5297 841.062 51.4932 841.509 51.4932H863.301C863.744 51.4932 864.051 51.5297 864.218 51.5974C864.395 51.6703 864.489 51.8786 864.489 52.2224C864.489 52.5297 864.426 52.7432 864.301 52.8682C864.176 52.9828 863.916 53.087 863.53 53.1807C862.14 53.3891 861.119 53.6964 860.468 54.0974C859.827 54.488 859.51 55.1286 859.51 56.0141V72.5349C859.51 72.9411 859.312 73.3057 858.926 73.6391C856.895 75.2224 853.916 76.5245 849.989 77.5349C846.056 78.5453 841.499 79.0557 836.322 79.0557C829.947 79.0557 824.634 77.7953 820.384 75.2849C816.134 72.7589 812.947 69.3057 810.822 64.9307C808.697 60.5557 807.634 55.5766 807.634 49.9932C807.634 44.4099 808.697 39.4255 810.822 35.0349C812.947 30.6339 816.103 27.1599 820.301 24.6182C824.509 22.0766 829.676 20.8057 835.801 20.8057C837.52 20.8057 839.603 20.9672 842.051 21.2849C844.509 21.6078 846.676 22.113 848.551 22.8057C848.994 23.0036 849.582 23.1755 850.322 23.3266C851.072 23.4672 851.765 23.5349 852.405 23.5349H852.697C852.947 23.5349 853.166 23.5297 853.364 23.5141C853.556 23.488 853.728 23.4724 853.884 23.4724C854.619 23.4724 855.015 23.8422 855.072 24.5766C855.223 25.5661 855.395 26.9099 855.593 28.6182C855.786 30.3266 855.994 32.0557 856.218 33.8057C856.437 35.5557 856.624 37.0505 856.78 38.2849V38.7432C856.78 39.0349 856.635 39.212 856.343 39.2641C856.228 39.3057 856.077 39.3266 855.885 39.3266C855.593 39.3266 855.405 39.2432 855.322 39.0766C855.249 38.8995 855.166 38.7328 855.072 38.5766C853.447 34.9828 851.687 32.1807 849.801 30.1807C847.926 28.1807 845.89 26.7745 843.697 25.9516C841.499 25.1339 839.015 24.7224 836.239 24.7224C832.239 24.7224 829.015 26.5297 826.572 30.1391C824.124 33.7536 822.905 39.0141 822.905 45.9307C822.905 52.7536 823.655 58.3161 825.155 62.6182C826.666 66.9099 828.603 70.0714 830.968 72.0974C833.343 74.1286 835.869 75.1391 838.551 75.1391C840.562 75.1391 842.093 75.0141 843.134 74.7641C844.176 74.5141 844.869 74.0349 845.218 73.3266C845.562 72.6078 845.739 71.5505 845.739 70.1599Z" fill="#3D3B3A"/>
<path d="M940.128 76.9099L907.086 31.5349V69.7224C907.086 71.3474 907.711 72.6807 908.961 73.7224C910.222 74.7641 911.868 75.4828 913.899 75.8682C914.149 75.9255 914.342 76.0037 914.482 76.0974C914.633 76.1964 914.711 76.4203 914.711 76.7641C914.711 77.3057 914.409 77.5766 913.815 77.5766H896.92C896.321 77.5766 896.024 77.3057 896.024 76.7641C896.024 76.4203 896.107 76.1964 896.274 76.0974C896.451 76.0037 896.649 75.9255 896.857 75.8682C900.899 75.0766 902.92 73.0297 902.92 69.7224V28.2016C902.529 27.0766 902.05 26.2797 901.482 25.8057C900.909 25.337 900.243 24.988 899.482 24.7641C898.717 24.5453 897.842 24.2849 896.857 23.9932C896.649 23.8839 896.451 23.7953 896.274 23.7224C896.107 23.6547 896.024 23.4464 896.024 23.0974C896.024 22.5557 896.321 22.2849 896.92 22.2849H915.899C916.44 22.2849 916.857 22.3995 917.149 22.6182C917.451 22.8422 917.753 23.1495 918.045 23.5349L940.878 54.1599V30.1391C940.878 28.5037 940.243 27.1547 938.982 26.0974C937.732 25.0297 936.092 24.3266 934.065 23.9932C933.857 23.9412 933.659 23.863 933.482 23.7641C933.315 23.6703 933.232 23.4464 933.232 23.0974C933.232 22.5557 933.529 22.2849 934.128 22.2849H951.399C951.993 22.2849 952.295 22.5557 952.295 23.0974C952.295 23.4464 952.217 23.6703 952.065 23.7641C951.925 23.863 951.732 23.9412 951.482 23.9932C947.175 24.8266 945.024 26.8787 945.024 30.1391V77.0557C945.024 77.8474 944.972 78.3735 944.878 78.6391C944.779 78.9151 944.534 79.0557 944.149 79.0557C943.3 79.0557 942.592 78.9307 942.024 78.6807C941.451 78.4412 940.821 77.8526 940.128 76.9099Z" fill="#3D3B3A"/>
</g>
</g>
</svg>
