<svg width="208" height="290" viewBox="0 0 208 290" fill="none" xmlns="http://www.w3.org/2000/svg">
<mask id="mask0_18_266" style="mask-type:luminance" maskUnits="userSpaceOnUse" x="0" y="214" width="183" height="36">
<path d="M182.667 214.667H0V249.333H182.667V214.667Z" fill="white"/>
</mask>
<g mask="url(#mask0_18_266)">
<path d="M27.7654 243.48H21.7446C21.5623 243.48 21.4738 243.418 21.4738 243.293V243.23C21.4738 243.079 21.5467 242.991 21.7029 242.959C22.5467 242.892 23.0467 242.688 23.2029 242.355C23.354 242.011 23.4321 241.616 23.4321 241.168V232.209C23.4321 230.459 23.1665 229.22 22.6404 228.48C22.1248 227.746 21.4373 227.376 20.5779 227.376C19.604 227.376 18.7446 227.621 17.9946 228.105C17.2446 228.595 16.6196 229.267 16.1196 230.126C16.1196 230.475 16.13 230.829 16.1613 231.188C16.1873 231.537 16.2029 231.912 16.2029 232.313V240.855C16.2029 241.371 16.2863 241.824 16.4529 242.209C16.6196 242.6 17.1457 242.85 18.0363 242.959C18.0779 242.991 18.1248 243.022 18.1821 243.063C18.2342 243.095 18.2654 243.147 18.2654 243.23C18.2654 243.397 18.1717 243.48 17.9946 243.48H12.0779C11.8957 243.48 11.8071 243.397 11.8071 243.23C11.8071 243.053 11.88 242.959 12.0363 242.959C12.6457 242.918 13.0832 242.793 13.3488 242.584C13.6092 242.376 13.7707 242.121 13.8279 241.813C13.88 241.511 13.9113 241.188 13.9113 240.855V232.209C13.9113 230.459 13.6404 229.22 13.0988 228.48C12.5675 227.746 11.8748 227.376 11.0154 227.376C10.1092 227.376 9.28628 227.616 8.53628 228.084C7.78628 228.543 7.16128 229.168 6.66128 229.959V240.855C6.66128 241.371 6.74982 241.824 6.93211 242.209C7.10919 242.6 7.58836 242.85 8.36961 242.959C8.61961 243.001 8.74461 243.095 8.74461 243.23C8.74461 243.397 8.65086 243.48 8.47378 243.48H2.34878C2.16648 243.48 2.07794 243.418 2.07794 243.293V243.23C2.07794 243.079 2.15086 242.991 2.30711 242.959C3.26544 242.892 3.83836 242.657 4.03628 242.251C4.22898 241.834 4.32794 241.371 4.32794 240.855V228.543C4.32794 228.058 4.23419 227.772 4.05711 227.688C3.89044 227.595 3.43211 227.543 2.68211 227.543H2.39044C2.14044 227.543 2.01544 227.449 2.01544 227.251C2.01544 227.084 2.10398 226.98 2.28628 226.938C2.86961 226.829 3.53628 226.678 4.28628 226.48C5.03628 226.287 5.73419 226.116 6.39044 225.959H6.43211C6.58315 225.959 6.66128 226.074 6.66128 226.293V228.605C7.18732 227.746 7.85398 227.084 8.66128 226.626C9.47898 226.157 10.3488 225.918 11.2654 225.918C12.5988 225.918 13.6092 226.183 14.3071 226.709C15.0154 227.225 15.5259 228.053 15.8488 229.188C16.4425 228.147 17.1821 227.345 18.0571 226.772C18.9425 226.204 19.8748 225.918 20.8488 225.918C22.6925 225.918 23.979 226.449 24.7029 227.501C25.4217 228.558 25.7863 230.162 25.7863 232.313V240.855C25.7863 241.371 25.9009 241.824 26.1404 242.209C26.3748 242.6 26.9217 242.85 27.7863 242.959C27.8384 242.991 27.8957 243.022 27.9529 243.063C28.005 243.095 28.0363 243.147 28.0363 243.23C28.0363 243.397 27.9425 243.48 27.7654 243.48Z" fill="#3D3B3A"/>
<path d="M48.6217 239.459V233.272C48.0227 233.496 47.2154 233.741 46.205 234.001C45.205 234.267 44.205 234.491 43.205 234.668C41.731 234.918 40.6529 235.407 39.9758 236.126C39.2935 236.85 38.955 237.782 38.955 238.918C38.955 239.892 39.2779 240.668 39.9342 241.251C40.6008 241.824 41.6477 242.105 43.08 242.105C43.8717 242.105 44.6477 241.98 45.4133 241.73C46.1894 241.47 46.8717 241.136 47.455 240.73C48.0487 240.313 48.4394 239.892 48.6217 239.459ZM50.955 232.272V239.959C50.955 240.876 51.0592 241.563 51.2675 242.022C51.4862 242.47 51.8821 242.688 52.455 242.688C52.8821 242.688 53.2727 242.563 53.6217 242.313C53.731 242.246 53.8092 242.209 53.8508 242.209C53.8769 242.209 53.9342 242.261 54.0175 242.355C54.0435 242.371 54.0592 242.407 54.0592 242.459C54.0592 242.543 54.0175 242.626 53.9342 242.709C53.8612 242.793 53.7935 242.855 53.7258 242.897C53.4862 243.121 53.1633 243.313 52.7467 243.48C52.33 243.657 51.9185 243.751 51.5175 243.751C50.5279 243.751 49.8144 243.511 49.3717 243.043C48.9394 242.558 48.7258 241.85 48.7258 240.918C48.2362 241.532 47.6269 242.053 46.8925 242.48C46.1529 242.897 45.3717 243.22 44.5383 243.438C43.7154 243.647 42.9342 243.751 42.1842 243.751C40.3092 243.751 38.9029 243.334 37.9758 242.501C37.0435 241.668 36.58 240.532 36.58 239.084C36.58 237.293 37.1477 235.991 38.2883 235.168C39.4394 234.334 41.0383 233.782 43.08 233.501C43.5644 233.433 44.1477 233.329 44.83 233.188C45.5071 233.037 46.1842 232.876 46.8508 232.709C47.5279 232.543 48.0852 232.376 48.5175 232.209C48.5175 230.267 48.0904 228.912 47.2467 228.147C46.4133 227.386 45.3144 227.001 43.955 227.001C42.3144 227.001 41.1894 227.22 40.58 227.647C39.9654 228.079 39.6633 228.647 39.6633 229.355C39.6633 229.537 39.7571 229.746 39.955 229.98C40.1477 230.22 40.2467 230.491 40.2467 230.793C40.2467 231.808 39.7362 232.313 38.7258 232.313C38.2675 232.313 37.9133 232.142 37.6633 231.793C37.4133 231.433 37.2883 231.001 37.2883 230.501C37.2883 229.241 37.8925 228.157 39.1008 227.251C40.3196 226.334 42.0487 225.876 44.2883 225.876C46.58 225.876 48.2571 226.412 49.33 227.48C50.4133 228.553 50.955 230.147 50.955 232.272Z" fill="#3D3B3A"/>
<path d="M86.9975 243.48H80.9767C80.7944 243.48 80.7059 243.418 80.7059 243.293V243.23C80.7059 243.079 80.7788 242.991 80.935 242.959C81.7788 242.892 82.2788 242.688 82.435 242.355C82.5861 242.011 82.6642 241.616 82.6642 241.168V232.209C82.6642 230.459 82.3986 229.22 81.8725 228.48C81.3569 227.746 80.6694 227.376 79.81 227.376C78.8361 227.376 77.9767 227.621 77.2267 228.105C76.4767 228.595 75.8517 229.267 75.3517 230.126C75.3517 230.475 75.3621 230.829 75.3934 231.188C75.4194 231.537 75.435 231.912 75.435 232.313V240.855C75.435 241.371 75.5184 241.824 75.685 242.209C75.8517 242.6 76.3777 242.85 77.2684 242.959C77.31 242.991 77.3569 243.022 77.4142 243.063C77.4663 243.095 77.4975 243.147 77.4975 243.23C77.4975 243.397 77.4038 243.48 77.2267 243.48H71.31C71.1277 243.48 71.0392 243.397 71.0392 243.23C71.0392 243.053 71.1121 242.959 71.2684 242.959C71.8777 242.918 72.3152 242.793 72.5809 242.584C72.8413 242.376 73.0027 242.121 73.06 241.813C73.1121 241.511 73.1434 241.188 73.1434 240.855V232.209C73.1434 230.459 72.8725 229.22 72.3309 228.48C71.7996 227.746 71.1069 227.376 70.2475 227.376C69.3413 227.376 68.5184 227.616 67.7684 228.084C67.0184 228.543 66.3934 229.168 65.8934 229.959V240.855C65.8934 241.371 65.9819 241.824 66.1642 242.209C66.3413 242.6 66.8204 242.85 67.6017 242.959C67.8517 243.001 67.9767 243.095 67.9767 243.23C67.9767 243.397 67.8829 243.48 67.7059 243.48H61.5809C61.3986 243.48 61.31 243.418 61.31 243.293V243.23C61.31 243.079 61.3829 242.991 61.5392 242.959C62.4975 242.892 63.0704 242.657 63.2684 242.251C63.4611 241.834 63.56 241.371 63.56 240.855V228.543C63.56 228.058 63.4663 227.772 63.2892 227.688C63.1225 227.595 62.6642 227.543 61.9142 227.543H61.6225C61.3725 227.543 61.2475 227.449 61.2475 227.251C61.2475 227.084 61.3361 226.98 61.5184 226.938C62.1017 226.829 62.7684 226.678 63.5184 226.48C64.2684 226.287 64.9663 226.116 65.6225 225.959H65.6642C65.8152 225.959 65.8934 226.074 65.8934 226.293V228.605C66.4194 227.746 67.0861 227.084 67.8934 226.626C68.7111 226.157 69.5809 225.918 70.4975 225.918C71.8309 225.918 72.8413 226.183 73.5392 226.709C74.2475 227.225 74.7579 228.053 75.0809 229.188C75.6746 228.147 76.4142 227.345 77.2892 226.772C78.1746 226.204 79.1069 225.918 80.0809 225.918C81.9246 225.918 83.2111 226.449 83.935 227.501C84.6538 228.558 85.0184 230.162 85.0184 232.313V240.855C85.0184 241.371 85.1329 241.824 85.3725 242.209C85.6069 242.6 86.1538 242.85 87.0184 242.959C87.0704 242.991 87.1277 243.022 87.185 243.063C87.2371 243.095 87.2684 243.147 87.2684 243.23C87.2684 243.397 87.1746 243.48 86.9975 243.48Z" fill="#3D3B3A"/>
<path d="M107.854 239.459V233.272C107.255 233.496 106.447 233.741 105.437 234.001C104.437 234.267 103.437 234.491 102.437 234.668C100.963 234.918 99.8849 235.407 99.2078 236.126C98.5255 236.85 98.187 237.782 98.187 238.918C98.187 239.892 98.5099 240.668 99.1661 241.251C99.8328 241.824 100.88 242.105 102.312 242.105C103.104 242.105 103.88 241.98 104.645 241.73C105.421 241.47 106.104 241.136 106.687 240.73C107.281 240.313 107.671 239.892 107.854 239.459ZM110.187 232.272V239.959C110.187 240.876 110.291 241.563 110.499 242.022C110.718 242.47 111.114 242.688 111.687 242.688C112.114 242.688 112.505 242.563 112.854 242.313C112.963 242.246 113.041 242.209 113.083 242.209C113.109 242.209 113.166 242.261 113.249 242.355C113.276 242.371 113.291 242.407 113.291 242.459C113.291 242.543 113.249 242.626 113.166 242.709C113.093 242.793 113.026 242.855 112.958 242.897C112.718 243.121 112.395 243.313 111.979 243.48C111.562 243.657 111.151 243.751 110.749 243.751C109.76 243.751 109.046 243.511 108.604 243.043C108.171 242.558 107.958 241.85 107.958 240.918C107.468 241.532 106.859 242.053 106.124 242.48C105.385 242.897 104.604 243.22 103.77 243.438C102.947 243.647 102.166 243.751 101.416 243.751C99.5411 243.751 98.1349 243.334 97.2078 242.501C96.2755 241.668 95.812 240.532 95.812 239.084C95.812 237.293 96.3797 235.991 97.5203 235.168C98.6713 234.334 100.27 233.782 102.312 233.501C102.796 233.433 103.38 233.329 104.062 233.188C104.739 233.037 105.416 232.876 106.083 232.709C106.76 232.543 107.317 232.376 107.749 232.209C107.749 230.267 107.322 228.912 106.479 228.147C105.645 227.386 104.546 227.001 103.187 227.001C101.546 227.001 100.421 227.22 99.812 227.647C99.1974 228.079 98.8953 228.647 98.8953 229.355C98.8953 229.537 98.989 229.746 99.187 229.98C99.3797 230.22 99.4786 230.491 99.4786 230.793C99.4786 231.808 98.9682 232.313 97.9578 232.313C97.4995 232.313 97.1453 232.142 96.8953 231.793C96.6453 231.433 96.5203 231.001 96.5203 230.501C96.5203 229.241 97.1245 228.157 98.3328 227.251C99.5516 226.334 101.281 225.876 103.52 225.876C105.812 225.876 107.489 226.412 108.562 227.48C109.645 228.553 110.187 230.147 110.187 232.272Z" fill="#3D3B3A"/>
<path d="M136.771 243.438H130.105C129.964 243.438 129.896 243.371 129.896 243.23C129.896 243.147 129.948 243.079 130.063 243.022C130.672 242.912 131.11 242.782 131.375 242.626C131.636 242.459 131.771 242.287 131.771 242.105C131.771 241.98 131.714 241.834 131.605 241.668L127.584 235.918L123.771 241.251C123.657 241.418 123.605 241.574 123.605 241.709C123.605 242.251 124.214 242.688 125.438 243.022C125.547 243.079 125.605 243.147 125.605 243.23V243.334C125.605 243.407 125.547 243.438 125.438 243.438H119.646C119.521 243.438 119.459 243.35 119.459 243.168C119.459 243.058 119.511 242.98 119.625 242.938C120.302 242.746 120.818 242.543 121.167 242.334C121.511 242.116 121.776 241.876 121.959 241.626L126.938 234.897L121.73 227.73C121.438 227.345 121.172 227.079 120.938 226.938C120.714 226.803 120.401 226.725 120 226.709C119.86 226.709 119.792 226.626 119.792 226.459C119.792 226.282 119.881 226.188 120.063 226.188H125.875C125.985 226.188 126.042 226.261 126.042 226.397C126.042 226.553 125.98 226.642 125.855 226.668C125.355 226.751 125.006 226.845 124.813 226.938C124.615 227.037 124.521 227.147 124.521 227.272C124.521 227.371 124.573 227.511 124.688 227.688L128.292 232.959L131.875 228.022C131.959 227.912 132 227.787 132 227.647C132 227.397 131.834 227.183 131.5 227.001C131.177 226.824 130.756 226.709 130.23 226.668C130.089 226.668 130.021 226.579 130.021 226.397C130.021 226.261 130.084 226.188 130.209 226.188H135.584C135.761 226.188 135.855 226.282 135.855 226.459C135.855 226.574 135.797 226.642 135.688 226.668C134.73 226.808 134.021 227.183 133.563 227.793L129.084 233.876L134.521 241.772C134.98 242.428 135.709 242.813 136.709 242.938C136.834 242.938 136.896 243.017 136.896 243.168C136.896 243.35 136.855 243.438 136.771 243.438Z" fill="#3D3B3A"/>
<path d="M150.504 243.438H144.192C144.01 243.438 143.921 243.366 143.921 243.209C143.921 243.032 143.994 242.938 144.15 242.938C145.109 242.813 145.692 242.563 145.9 242.188C146.119 241.803 146.234 241.345 146.234 240.813V228.543C146.234 228.058 146.161 227.772 146.025 227.688C145.885 227.595 145.421 227.543 144.629 227.543H144.296C144.046 227.543 143.921 227.454 143.921 227.272C143.921 227.147 144.01 227.058 144.192 227.001C144.984 226.866 145.739 226.699 146.463 226.501C147.181 226.293 147.806 226.084 148.338 225.876H148.4C148.536 225.876 148.609 225.996 148.609 226.23V240.813C148.609 241.162 148.635 241.491 148.692 241.793C148.744 242.1 148.905 242.355 149.171 242.563C149.447 242.761 149.905 242.886 150.546 242.938C150.697 242.938 150.775 243.032 150.775 243.209C150.775 243.366 150.681 243.438 150.504 243.438ZM147.171 221.709C146.671 221.709 146.234 221.511 145.859 221.105C145.494 220.688 145.317 220.23 145.317 219.73C145.317 219.23 145.494 218.787 145.859 218.397C146.234 217.996 146.671 217.793 147.171 217.793C147.697 217.793 148.14 217.996 148.504 218.397C148.864 218.787 149.046 219.23 149.046 219.73C149.046 220.23 148.864 220.688 148.504 221.105C148.14 221.511 147.697 221.709 147.171 221.709Z" fill="#3D3B3A"/>
<path d="M159.935 242.084C159.851 241.475 159.752 240.787 159.643 240.022C159.544 239.261 159.424 238.412 159.289 237.48C159.289 237.438 159.357 237.397 159.497 237.355C159.539 237.355 159.565 237.35 159.581 237.334C159.607 237.324 159.633 237.313 159.664 237.313C159.732 237.313 159.778 237.35 159.81 237.418C160.502 239.251 161.336 240.6 162.31 241.459C163.294 242.308 164.466 242.73 165.831 242.73C167.315 242.73 168.476 242.475 169.31 241.959C170.153 241.449 170.581 240.772 170.581 239.938C170.581 239.079 170.403 238.355 170.06 237.772C169.711 237.188 169.039 236.657 168.039 236.168C167.039 235.668 165.565 235.142 163.622 234.584C162.258 234.209 161.232 233.642 160.539 232.876C159.841 232.116 159.497 231.209 159.497 230.168C159.497 229.017 160.002 228.017 161.018 227.168C162.044 226.308 163.456 225.876 165.247 225.876C166.081 225.876 166.82 225.912 167.476 225.98C168.143 226.037 168.883 226.162 169.706 226.355C169.815 226.386 169.924 226.407 170.039 226.418C170.148 226.433 170.252 226.438 170.351 226.438C170.81 226.438 171.133 226.371 171.331 226.23C171.424 226.178 171.508 226.147 171.581 226.147C171.664 226.147 171.716 226.199 171.747 226.293C171.815 226.949 171.893 227.657 171.976 228.418C172.07 229.183 172.211 229.959 172.393 230.751C172.393 230.793 172.351 230.845 172.268 230.897C172.185 230.938 172.107 230.959 172.039 230.959C171.914 230.959 171.82 230.907 171.768 230.793C171.211 229.616 170.601 228.746 169.935 228.188C169.278 227.636 168.591 227.267 167.872 227.084C167.164 226.892 166.435 226.793 165.685 226.793C164.393 226.793 163.419 227.063 162.768 227.605C162.127 228.136 161.81 228.866 161.81 229.793C161.81 230.366 161.966 230.845 162.289 231.23C162.607 231.621 163.148 231.975 163.914 232.293C164.69 232.6 165.732 232.949 167.039 233.334C168.857 233.866 170.336 234.563 171.476 235.438C172.627 236.303 173.206 237.47 173.206 238.938C173.206 239.855 172.976 240.678 172.518 241.397C172.07 242.121 171.32 242.699 170.268 243.126C169.211 243.543 167.773 243.751 165.956 243.751C164.94 243.751 163.924 243.616 162.914 243.355C161.898 243.079 161.018 242.73 160.268 242.313C160.07 242.23 159.961 242.157 159.935 242.084Z" fill="#3D3B3A"/>
</g>
<mask id="mask1_18_266" style="mask-type:luminance" maskUnits="userSpaceOnUse" x="0" y="257" width="208" height="33">
<path d="M208 257.333H0V289.333H208V257.333Z" fill="white"/>
</mask>
<g mask="url(#mask1_18_266)">
<path d="M9.5657 264.18V281.867C9.5657 282.232 9.78445 282.508 10.2324 282.7C10.6751 282.898 11.1282 282.992 11.5865 282.992C12.1699 282.992 12.7584 282.898 13.3574 282.7C13.9511 282.492 14.5032 282.096 15.0032 281.513C15.5032 280.919 15.9042 280.065 16.2115 278.95C16.5136 277.825 16.6699 276.357 16.6699 274.534C16.6699 272.409 16.4251 270.57 15.9407 269.013C15.4511 267.445 14.8157 266.232 14.024 265.367C13.2324 264.508 12.3574 264.075 11.399 264.075C10.9251 264.075 10.5032 264.096 10.1282 264.138C9.7532 264.169 9.5657 264.18 9.5657 264.18ZM11.9199 284.18H2.02404C1.80008 284.18 1.6907 284.075 1.6907 283.867C1.6907 283.732 1.71675 283.648 1.77404 283.617C1.84175 283.575 1.91987 283.549 2.0032 283.534C2.79487 283.44 3.32612 283.325 3.60737 283.2C3.89904 283.075 4.04487 282.825 4.04487 282.45V264.7C4.04487 264.325 3.89904 264.075 3.60737 263.95C3.32612 263.815 2.79487 263.7 2.0032 263.617C1.91987 263.607 1.84175 263.575 1.77404 263.534C1.71675 263.492 1.6907 263.409 1.6907 263.284C1.6907 263.075 1.80008 262.971 2.02404 262.971C3.32612 262.971 4.50841 262.966 5.5657 262.95C6.61779 262.924 7.66987 262.903 8.71154 262.888C9.7532 262.862 10.9199 262.846 12.2115 262.846C15.4876 262.846 18.0345 263.784 19.8574 265.659C21.6751 267.523 22.5865 270.18 22.5865 273.638C22.5865 277.127 21.6542 279.758 19.7949 281.534C17.9303 283.299 15.3053 284.18 11.9199 284.18Z" fill="#3D3B3A"/>
<path d="M51.6875 284.325H51.6667C49.6667 284.294 48.0312 284.263 46.7708 284.221C45.5208 284.19 44.4792 284.179 43.6458 284.179H35.5625C35.3385 284.179 35.2292 284.075 35.2292 283.867C35.2292 283.732 35.2552 283.648 35.3125 283.617C35.3802 283.575 35.4583 283.549 35.5417 283.534C36.3333 283.44 36.8646 283.325 37.1458 283.2C37.4375 283.075 37.5833 282.825 37.5833 282.45V264.7C37.5833 264.325 37.4375 264.075 37.1458 263.95C36.8646 263.815 36.3333 263.7 35.5417 263.617C35.4583 263.607 35.3802 263.575 35.3125 263.534C35.2552 263.492 35.2292 263.409 35.2292 263.284C35.2292 263.075 35.3385 262.971 35.5625 262.971H45.9167C46.75 262.971 47.5625 262.95 48.3542 262.909C49.1562 262.857 49.9896 262.778 50.8542 262.679H50.9375C51.0625 262.679 51.1719 262.716 51.2708 262.784C51.3802 262.857 51.4427 262.992 51.4583 263.2C51.5 263.575 51.5625 264.107 51.6458 264.784C51.7292 265.45 51.8177 266.133 51.9167 266.825C52.0104 267.508 52.0937 268.091 52.1667 268.575V268.742C52.1667 268.857 52.1146 268.919 52.0208 268.929C51.9062 268.971 51.8333 268.992 51.7917 268.992C51.7083 268.992 51.6458 268.966 51.6042 268.909C51.5625 268.857 51.5208 268.778 51.4792 268.679C50.9479 267.211 50.1458 266.065 49.0625 265.242C47.9896 264.424 46.8385 264.013 45.6042 264.013H43.1042V272.659C43.4219 272.659 43.7708 272.659 44.1458 272.659C44.5208 272.648 44.776 272.627 44.9167 272.596C45.1667 272.57 45.401 272.492 45.625 272.367C45.8594 272.232 46.0677 272.07 46.25 271.888C46.4427 271.679 46.6719 271.367 46.9375 270.95C47.2135 270.534 47.4687 270.117 47.7083 269.7C47.9583 269.273 48.1094 268.94 48.1667 268.7C48.2187 268.534 48.3021 268.45 48.4167 268.45C48.4844 268.45 48.5521 268.466 48.625 268.492C48.8333 268.549 48.9375 268.638 48.9375 268.763C48.9375 268.794 48.9271 268.815 48.9167 268.825C48.901 268.841 48.8958 268.867 48.8958 268.909C48.8229 269.273 48.7552 269.732 48.6875 270.284C48.6146 270.841 48.5521 271.388 48.5 271.929C48.4583 272.461 48.4375 272.877 48.4375 273.179C48.4375 273.513 48.4583 273.95 48.5 274.492C48.5521 275.034 48.6146 275.575 48.6875 276.117C48.7552 276.659 48.8229 277.112 48.8958 277.471C48.8958 277.487 48.901 277.508 48.9167 277.534C48.9271 277.565 48.9375 277.591 48.9375 277.617C48.9375 277.742 48.8333 277.836 48.625 277.888C48.5833 277.919 48.5208 277.929 48.4375 277.929C48.3125 277.929 48.2187 277.836 48.1667 277.638C48.1094 277.419 47.9583 277.091 47.7083 276.659C47.4687 276.232 47.2135 275.804 46.9375 275.388C46.6719 274.971 46.4375 274.674 46.2292 274.492C46.0625 274.341 45.8594 274.195 45.625 274.054C45.401 273.903 45.1667 273.82 44.9167 273.804C44.776 273.778 44.5208 273.763 44.1458 273.763C43.7708 273.752 43.4219 273.742 43.1042 273.742V281.867C43.1042 282.232 43.2135 282.471 43.4375 282.596C43.6562 282.721 43.8594 282.804 44.0417 282.846C44.4583 282.945 44.9583 282.992 45.5417 282.992C45.9687 282.992 46.3958 282.971 46.8125 282.929C47.2396 282.877 47.5729 282.799 47.8125 282.7C48.6979 282.357 49.5312 281.82 50.3125 281.096C51.0885 280.362 51.8021 279.336 52.4583 278.013C52.5104 277.919 52.5625 277.841 52.6042 277.784C52.6562 277.732 52.7187 277.7 52.7917 277.7C52.8333 277.7 52.9062 277.721 53.0208 277.763C53.1719 277.794 53.25 277.862 53.25 277.971C53.25 278.054 53.2396 278.127 53.2292 278.179C53.0885 278.669 52.9427 279.284 52.7917 280.034C52.6354 280.773 52.5 281.487 52.375 282.179C52.25 282.877 52.1562 283.409 52.1042 283.784C52.0885 284.008 52.0469 284.153 51.9792 284.221C51.9062 284.289 51.8125 284.325 51.6875 284.325Z" fill="#3D3B3A"/>
<path d="M81.4448 268.7V268.888C81.4448 269.002 81.3875 269.065 81.2781 269.075C81.1635 269.117 81.0906 269.138 81.049 269.138C80.9083 269.138 80.8094 269.034 80.7573 268.825C80.3927 267.841 79.8458 266.971 79.1115 266.221C78.3875 265.471 77.5906 264.883 76.7156 264.45C75.851 264.008 75.0333 263.784 74.2573 263.784C72.7156 263.784 71.5906 264.044 70.8823 264.554C70.174 265.054 69.8198 265.721 69.8198 266.554C69.8198 267.336 70.2417 268.034 71.0906 268.659C71.95 269.284 73.3927 269.898 75.424 270.492C77.7573 271.19 79.5802 272.169 80.9031 273.429C82.2365 274.695 82.9031 276.325 82.9031 278.325C82.9031 280.357 82.1427 281.929 80.6323 283.054C79.1323 284.179 76.8719 284.742 73.8615 284.742C73.1375 284.742 72.3719 284.685 71.5698 284.575C70.7625 284.461 69.9969 284.315 69.2781 284.138C68.5542 283.945 67.9448 283.742 67.4448 283.534C67.2625 283.44 67.1323 283.357 67.049 283.284C66.976 283.2 66.9292 283.107 66.9031 282.992C66.8875 282.607 66.8406 282.075 66.7573 281.409C66.674 280.732 66.5698 280.028 66.4448 279.304C66.3302 278.57 66.2156 277.961 66.0906 277.471C66.0906 277.429 66.0802 277.398 66.0698 277.367C66.0698 277.341 66.0698 277.32 66.0698 277.304C66.0698 277.179 66.1375 277.091 66.2781 277.034C66.4031 277.008 66.476 276.992 66.5073 276.992C66.6583 276.992 66.7625 277.096 66.8198 277.304C67.4135 278.627 68.1583 279.737 69.049 280.638C69.9344 281.528 70.8302 282.19 71.7365 282.617C72.6531 283.049 73.4292 283.263 74.0698 283.263C75.3615 283.263 76.3823 283.013 77.1323 282.513C77.8927 282.002 78.2781 281.304 78.2781 280.429C78.2781 279.653 77.8719 278.867 77.0698 278.075C76.2625 277.273 75.075 276.596 73.5073 276.054C71.8406 275.461 70.4552 274.82 69.3615 274.138C68.2781 273.461 67.4656 272.669 66.924 271.763C66.3823 270.862 66.1115 269.778 66.1115 268.513C66.1115 266.695 66.8042 265.221 68.1948 264.096C69.5802 262.961 71.5802 262.388 74.1948 262.388C74.8615 262.388 75.601 262.461 76.424 262.596C77.2417 262.737 77.924 262.867 78.4656 262.992C78.5177 263.008 78.575 263.013 78.6323 263.013C78.6844 263.013 78.7417 263.013 78.799 263.013H79.0073C79.424 263.013 79.7677 262.987 80.049 262.929C80.1427 262.919 80.2208 262.909 80.2781 262.909C80.3302 262.898 80.3823 262.888 80.424 262.888C80.601 262.888 80.7052 263.034 80.7365 263.325C80.7781 263.716 80.8302 264.252 80.9031 264.929C80.9865 265.596 81.075 266.278 81.174 266.971C81.2833 267.653 81.3719 268.232 81.4448 268.7Z" fill="#3D3B3A"/>
<path d="M105.638 284.18H95.7834C95.5595 284.18 95.4501 284.075 95.4501 283.867C95.4501 283.732 95.4813 283.648 95.5543 283.617C95.622 283.575 95.6897 283.549 95.7626 283.534C96.6636 283.44 97.2418 283.325 97.4918 283.2C97.7522 283.075 97.8876 282.825 97.8876 282.45V264.7C97.8876 264.325 97.7522 264.075 97.4918 263.95C97.2418 263.815 96.6636 263.7 95.7626 263.617C95.6897 263.607 95.622 263.575 95.5543 263.534C95.4813 263.492 95.4501 263.409 95.4501 263.284C95.4501 263.075 95.5595 262.971 95.7834 262.971H105.638C105.856 262.971 105.971 263.075 105.971 263.284C105.971 263.409 105.94 263.492 105.888 263.534C105.83 263.575 105.752 263.607 105.658 263.617C104.742 263.7 104.158 263.815 103.908 263.95C103.658 264.075 103.533 264.325 103.533 264.7V282.45C103.533 282.825 103.658 283.075 103.908 283.2C104.158 283.325 104.742 283.44 105.658 283.534C105.752 283.549 105.83 283.575 105.888 283.617C105.94 283.648 105.971 283.732 105.971 283.867C105.971 284.075 105.856 284.18 105.638 284.18Z" fill="#3D3B3A"/>
<path d="M133.264 281.325V275.909C133.264 275.591 133.129 275.346 132.868 275.179C132.618 275.013 132.171 274.898 131.535 274.825C131.296 274.815 131.181 274.69 131.181 274.45C131.181 274.325 131.212 274.252 131.285 274.221C131.353 274.195 131.473 274.179 131.639 274.179H139.993C140.171 274.179 140.29 274.195 140.348 274.221C140.415 274.252 140.452 274.325 140.452 274.45C140.452 274.565 140.421 274.648 140.368 274.7C140.327 274.742 140.228 274.784 140.077 274.825C139.546 274.898 139.16 275.008 138.91 275.159C138.671 275.315 138.556 275.565 138.556 275.909V282.242C138.556 282.398 138.478 282.544 138.327 282.679C137.546 283.278 136.4 283.773 134.889 284.159C133.389 284.544 131.645 284.742 129.66 284.742C127.202 284.742 125.16 284.263 123.535 283.304C121.91 282.336 120.686 281.008 119.868 279.325C119.046 277.648 118.639 275.737 118.639 273.596C118.639 271.461 119.046 269.549 119.868 267.867C120.686 266.174 121.9 264.841 123.514 263.867C125.124 262.883 127.103 262.388 129.452 262.388C130.118 262.388 130.915 262.45 131.848 262.575C132.79 262.7 133.624 262.898 134.348 263.159C134.514 263.242 134.733 263.315 135.014 263.367C135.306 263.424 135.577 263.45 135.827 263.45H135.931C136.025 263.45 136.108 263.45 136.181 263.45C136.264 263.44 136.332 263.429 136.389 263.429C136.665 263.429 136.816 263.57 136.848 263.846C136.9 264.221 136.962 264.742 137.035 265.409C137.118 266.065 137.202 266.721 137.285 267.388C137.368 268.054 137.436 268.633 137.493 269.117V269.284C137.493 269.398 137.436 269.461 137.327 269.471C137.285 269.502 137.228 269.513 137.16 269.513C137.046 269.513 136.978 269.482 136.952 269.409C136.921 269.341 136.889 269.278 136.848 269.221C136.223 267.836 135.546 266.758 134.827 265.992C134.103 265.232 133.316 264.695 132.473 264.388C131.639 264.07 130.686 263.909 129.618 263.909C128.087 263.909 126.853 264.607 125.91 265.992C124.962 267.367 124.493 269.383 124.493 272.034C124.493 274.659 124.785 276.799 125.368 278.45C125.952 280.091 126.691 281.299 127.598 282.075C128.514 282.857 129.478 283.242 130.493 283.242C131.27 283.242 131.858 283.195 132.264 283.096C132.665 283.002 132.931 282.82 133.056 282.554C133.191 282.278 133.264 281.867 133.264 281.325Z" fill="#3D3B3A"/>
<path d="M169.479 283.93L156.792 266.513V281.159C156.792 281.784 157.026 282.299 157.5 282.7C157.984 283.107 158.615 283.383 159.396 283.534C159.49 283.549 159.568 283.575 159.625 283.617C159.677 283.648 159.708 283.732 159.708 283.867C159.708 284.075 159.594 284.18 159.375 284.18H152.896C152.656 284.18 152.542 284.075 152.542 283.867C152.542 283.732 152.573 283.648 152.646 283.617C152.714 283.575 152.781 283.549 152.854 283.534C154.406 283.232 155.187 282.44 155.187 281.159V265.242C155.047 264.815 154.865 264.508 154.646 264.325C154.422 264.148 154.167 264.013 153.875 263.93C153.583 263.836 153.24 263.732 152.854 263.617C152.781 263.575 152.714 263.544 152.646 263.513C152.573 263.487 152.542 263.409 152.542 263.284C152.542 263.075 152.656 262.971 152.896 262.971H160.167C160.375 262.971 160.531 263.013 160.646 263.096C160.771 263.18 160.885 263.299 161 263.45L169.75 275.2V265.971C169.75 265.346 169.505 264.836 169.021 264.43C168.547 264.028 167.922 263.758 167.146 263.617C167.062 263.607 166.984 263.575 166.917 263.534C166.859 263.492 166.833 263.409 166.833 263.284C166.833 263.075 166.943 262.971 167.167 262.971H173.792C174.026 262.971 174.146 263.075 174.146 263.284C174.146 263.409 174.109 263.492 174.042 263.534C173.984 263.575 173.906 263.607 173.812 263.617C172.172 263.94 171.354 264.721 171.354 265.971V283.971C171.354 284.273 171.333 284.476 171.292 284.575C171.25 284.685 171.151 284.742 171 284.742C170.677 284.742 170.406 284.69 170.187 284.596C169.979 284.513 169.74 284.289 169.479 283.93Z" fill="#3D3B3A"/>
</g>
<mask id="mask2_18_266" style="mask-type:luminance" maskUnits="userSpaceOnUse" x="22" y="0" width="156" height="235">
<path d="M178 0H22V234.667H178V0Z" fill="white"/>
</mask>
<g mask="url(#mask2_18_266)">
<mask id="mask3_18_266" style="mask-type:luminance" maskUnits="userSpaceOnUse" x="22" y="0" width="116" height="168">
<path d="M22.6927 0.802094H138V168H22.6927V0.802094Z" fill="white"/>
</mask>
<g mask="url(#mask3_18_266)">
<mask id="mask4_18_266" style="mask-type:luminance" maskUnits="userSpaceOnUse" x="22" y="0" width="116" height="168">
<path d="M138 0H22V168H138V0Z" fill="white"/>
</mask>
<g mask="url(#mask4_18_266)">
<path d="M134.003 125.52C134.279 125.52 134.42 125.801 134.42 126.353C134.42 126.895 134.279 127.166 134.003 127.166C131.18 127.166 128.951 127.119 127.316 127.02L117.878 126.895L109.128 127.02C107.67 127.119 105.613 127.166 102.962 127.166C102.779 127.166 102.691 126.895 102.691 126.353C102.691 125.801 102.779 125.52 102.962 125.52C106.055 125.52 108.358 125.27 109.858 124.77C111.368 124.27 112.378 123.385 112.878 122.103C113.378 120.827 113.535 118.822 113.358 116.082L110.899 53.8741L79.7325 126.207C79.5502 126.572 79.1804 126.749 78.6283 126.749C78.17 126.749 77.7586 126.572 77.3992 126.207L43.7742 54.7074L42.545 112.27C42.4461 117.093 43.2586 120.51 44.9825 122.52C46.7169 124.52 49.7742 125.52 54.1492 125.52C54.3263 125.52 54.42 125.801 54.42 126.353C54.42 126.895 54.3263 127.166 54.1492 127.166C51.6075 127.166 49.6492 127.119 48.2742 127.02L40.8992 126.895L33.7742 127.02C32.5086 127.119 30.6908 127.166 28.3158 127.166C28.1336 127.166 28.045 126.895 28.045 126.353C28.045 125.801 28.1336 125.52 28.3158 125.52C32.1492 125.52 34.9044 124.499 36.5867 122.457C38.2638 120.405 39.1544 117.01 39.2533 112.27L40.4825 48.8116C37.7429 45.1762 34.0086 43.3533 29.2742 43.3533C29.0919 43.3533 29.0033 43.0824 29.0033 42.5408C29.0033 41.9887 29.0919 41.7074 29.2742 41.7074L34.3367 41.8533C35.2377 41.9366 36.5086 41.9783 38.1492 41.9783C39.8002 41.9783 41.1961 41.9366 42.3367 41.8533C43.4721 41.7595 44.3627 41.7074 45.0033 41.7074C46.1804 41.7074 47.1596 42.1449 47.9408 43.0199C48.7169 43.8845 49.8367 45.8116 51.295 48.8116L81.7742 113.082L111.587 45.1241C112.587 42.8481 113.951 41.7074 115.691 41.7074C116.149 41.7074 116.805 41.7595 117.67 41.8533C118.529 41.9366 119.691 41.9783 121.149 41.9783L127.587 41.8533C128.587 41.7595 130.087 41.7074 132.087 41.7074C132.363 41.7074 132.503 41.9887 132.503 42.5408C132.503 43.0824 132.363 43.3533 132.087 43.3533C127.529 43.3533 124.274 44.0147 122.316 45.3324C120.358 46.6553 119.42 49.1397 119.503 52.7908L122.253 116.082C122.337 118.916 122.675 120.973 123.274 122.249C123.868 123.53 124.941 124.395 126.483 124.853C128.035 125.301 130.545 125.52 134.003 125.52Z" fill="#3D3B3A"/>
</g>
</g>
<mask id="mask5_18_266" style="mask-type:luminance" maskUnits="userSpaceOnUse" x="80" y="66" width="98" height="168">
<path d="M80.6667 66.6667H177.255V233.76H80.6667V66.6667Z" fill="white"/>
</mask>
<g mask="url(#mask5_18_266)">
<mask id="mask6_18_266" style="mask-type:luminance" maskUnits="userSpaceOnUse" x="80" y="66" width="98" height="169">
<path d="M178 66.6667H80.6667V234.667H178V66.6667Z" fill="white"/>
</mask>
<g mask="url(#mask6_18_266)">
<path d="M123.43 194.481C120.773 194.481 117.721 194.345 114.263 194.085C112.982 193.986 111.367 193.897 109.409 193.814C107.45 193.72 105.284 193.668 102.909 193.668L93.617 193.793C91.9764 193.892 89.7004 193.939 86.7837 193.939C86.6014 193.939 86.5129 193.668 86.5129 193.127C86.5129 192.574 86.6014 192.293 86.7837 192.293C90.242 192.293 92.7681 192.074 94.367 191.627C95.9608 191.168 97.0545 190.283 97.6379 188.96C98.2316 187.627 98.5337 185.595 98.5337 182.856V119.564C98.5337 116.83 98.2525 114.824 97.7004 113.543C97.1587 112.267 96.0858 111.377 94.492 110.877C92.9087 110.377 90.3775 110.127 86.9087 110.127C86.7264 110.127 86.6379 109.856 86.6379 109.314C86.6379 108.762 86.7264 108.481 86.9087 108.481L93.742 108.627C97.5754 108.809 100.627 108.897 102.909 108.897C106.377 108.897 109.794 108.762 113.159 108.481C117.169 108.304 119.956 108.21 121.513 108.21C130.982 108.21 139.388 110.038 146.721 113.689C154.065 117.33 159.742 122.293 163.742 128.585C167.752 134.877 169.763 141.939 169.763 149.772C169.763 158.621 167.685 166.439 163.534 173.231C159.393 180.022 153.768 185.267 146.659 188.96C139.544 192.642 131.805 194.481 123.43 194.481ZM122.055 192.439C129.346 192.439 135.815 190.913 141.471 187.856C147.122 184.804 151.518 180.288 154.659 174.314C157.81 168.345 159.388 161.168 159.388 152.793C159.388 144.866 157.877 137.663 154.867 131.189C151.867 124.72 147.581 119.616 142.013 115.877C136.456 112.127 130.034 110.252 122.742 110.252C118.825 110.252 115.789 110.481 113.638 110.939C111.497 111.397 109.93 112.314 108.93 113.689C107.93 115.054 107.43 117.101 107.43 119.835V181.356C107.43 184.095 107.81 186.241 108.575 187.793C109.351 189.335 110.81 190.496 112.95 191.272C115.101 192.054 118.138 192.439 122.055 192.439Z" fill="#3D3B3A"/>
</g>
</g>
<mask id="mask7_18_266" style="mask-type:luminance" maskUnits="userSpaceOnUse" x="62" y="62" width="80" height="112">
<path d="M62 62.6667H142V173.333H62V62.6667Z" fill="white"/>
</mask>
<g mask="url(#mask7_18_266)">
<mask id="mask8_18_266" style="mask-type:luminance" maskUnits="userSpaceOnUse" x="62" y="63" width="79" height="110">
<path d="M120.844 63.9375L140.865 76.0208L82.6094 172.542L62.5937 160.464L120.844 63.9375Z" fill="white"/>
</mask>
<g mask="url(#mask8_18_266)">
<mask id="mask9_18_266" style="mask-type:luminance" maskUnits="userSpaceOnUse" x="62" y="62" width="80" height="112">
<path d="M142 62.6667H62V173.333H142V62.6667Z" fill="white"/>
</mask>
<g mask="url(#mask9_18_266)">
<mask id="mask10_18_266" style="mask-type:luminance" maskUnits="userSpaceOnUse" x="62" y="63" width="80" height="110">
<path d="M62.375 63.8385H141.094V172.641H62.375V63.8385Z" fill="white"/>
</mask>
<g mask="url(#mask10_18_266)">
<mask id="mask11_18_266" style="mask-type:luminance" maskUnits="userSpaceOnUse" x="62" y="63" width="79" height="110">
<path d="M120.844 63.9375L140.865 76.0208L82.6093 172.542L62.5937 160.464L120.844 63.9375Z" fill="white"/>
</mask>
<g mask="url(#mask11_18_266)">
<path d="M120.844 63.9375L140.865 76.0208L82.6302 172.51L62.6145 160.427L120.844 63.9375Z" fill="white"/>
</g>
</g>
</g>
</g>
</g>
<mask id="mask12_18_266" style="mask-type:luminance" maskUnits="userSpaceOnUse" x="102" y="105" width="46" height="41">
<path d="M102 105.333H147.333V145.333H102V105.333Z" fill="white"/>
</mask>
<g mask="url(#mask12_18_266)">
<mask id="mask13_18_266" style="mask-type:luminance" maskUnits="userSpaceOnUse" x="102" y="105" width="46" height="40">
<path d="M113.448 105.719L147.062 122.563L136.198 144.245L102.583 127.406L113.448 105.719Z" fill="white"/>
</mask>
<g mask="url(#mask13_18_266)">
<mask id="mask14_18_266" style="mask-type:luminance" maskUnits="userSpaceOnUse" x="102" y="105" width="46" height="41">
<path d="M147.333 105.333H102V145.333H147.333V105.333Z" fill="white"/>
</mask>
<g mask="url(#mask14_18_266)">
<mask id="mask15_18_266" style="mask-type:luminance" maskUnits="userSpaceOnUse" x="102" y="105" width="46" height="40">
<path d="M102.375 105.438H147.172V144.479H102.375V105.438Z" fill="white"/>
</mask>
<g mask="url(#mask15_18_266)">
<mask id="mask16_18_266" style="mask-type:luminance" maskUnits="userSpaceOnUse" x="102" y="105" width="46" height="40">
<path d="M113.448 105.719L147.062 122.563L136.198 144.245L102.583 127.406L113.448 105.719Z" fill="white"/>
</mask>
<g mask="url(#mask16_18_266)">
<path d="M113.448 105.719L147.078 122.568L136.214 144.255L102.583 127.406L113.448 105.719Z" fill="white"/>
</g>
</g>
</g>
</g>
</g>
<mask id="mask17_18_266" style="mask-type:luminance" maskUnits="userSpaceOnUse" x="83" y="96" width="26" height="30">
<path d="M83.3333 96H108.667V125.333H83.3333V96Z" fill="white"/>
</mask>
<g mask="url(#mask17_18_266)">
<mask id="mask18_18_266" style="mask-type:luminance" maskUnits="userSpaceOnUse" x="83" y="96" width="26" height="29">
<path d="M92.1979 96.625L108.359 103.396L99.6198 124.25L83.4583 117.479L92.1979 96.625Z" fill="white"/>
</mask>
<g mask="url(#mask18_18_266)">
<mask id="mask19_18_266" style="mask-type:luminance" maskUnits="userSpaceOnUse" x="83" y="96" width="26" height="30">
<path d="M108.667 96H83.3333V125.333H108.667V96Z" fill="white"/>
</mask>
<g mask="url(#mask19_18_266)">
<mask id="mask20_18_266" style="mask-type:luminance" maskUnits="userSpaceOnUse" x="83" y="96" width="26" height="29">
<path d="M83.3333 96.4792H108.453V124.318H83.3333V96.4792Z" fill="white"/>
</mask>
<g mask="url(#mask20_18_266)">
<mask id="mask21_18_266" style="mask-type:luminance" maskUnits="userSpaceOnUse" x="83" y="96" width="26" height="29">
<path d="M92.1979 96.625L108.359 103.396L99.6198 124.25L83.4583 117.479L92.1979 96.625Z" fill="white"/>
</mask>
<g mask="url(#mask21_18_266)">
<path d="M92.1979 96.625L108.359 103.396L99.6302 124.229L83.4687 117.458L92.1979 96.625Z" fill="white"/>
</g>
</g>
</g>
</g>
</g>
<path d="M55.1302 183.792L140.87 61.7136" stroke="#3D3B3A" stroke-width="3.06972"/>
</g>
</svg>
